<svg width="90" height="79" viewBox="0 0 90 79" fill="none" xmlns="http://www.w3.org/2000/svg">
<path d="M78.3333 45.3942C81.2668 45.3512 84.068 44.1667 86.1425 42.0922C88.217 40.0178 89.4014 37.2165 89.4444 34.2831V12.0609H61.6667V7.69976C61.663 6.80969 61.4841 5.92905 61.1401 5.10813C60.7961 4.2872 60.2938 3.54207 59.6619 2.91527C59.0299 2.28847 58.2807 1.79229 57.457 1.45505C56.6333 1.1178 55.7512 0.946109 54.8611 0.949764H35.1389C34.2488 0.946109 33.3667 1.1178 32.543 1.45505C31.7193 1.79229 30.9701 2.28847 30.3381 2.91527C29.7062 3.54207 29.2039 4.2872 28.8599 5.10813C28.5159 5.92905 28.337 6.80969 28.3333 7.69976V12.0609H0.555557V34.2831C0.599257 37.2404 1.80291 40.0621 3.9072 42.1404C6.01148 44.2187 8.84797 45.3872 11.8056 45.3942H22.9167V39.6164H28.4722V55.4498C28.4722 56.1865 28.1796 56.893 27.6586 57.4139C27.1377 57.9349 26.4312 58.2275 25.6944 58.2275C24.9577 58.2275 24.2512 57.9349 23.7303 57.4139C23.2093 56.893 22.9167 56.1865 22.9167 55.4498V51.1164H11.8333C7.66369 51.1097 3.64495 49.5556 0.555557 46.7553V73.0053C0.555557 74.4787 1.14087 75.8918 2.18274 76.9337C3.22461 77.9756 4.63769 78.5609 6.11111 78.5609H83.8889C85.3623 78.5609 86.7754 77.9756 87.8173 76.9337C88.8591 75.8918 89.4444 74.4787 89.4444 73.0053V46.7553C86.3636 49.5695 82.3393 51.1257 78.1667 51.1164H72.7778V45.3942H78.3333ZM33.8889 7.69976C33.9032 7.37797 34.0412 7.07412 34.2741 6.85158C34.507 6.62904 34.8168 6.505 35.1389 6.50532H54.8611C55.1832 6.505 55.493 6.62904 55.7259 6.85158C55.9588 7.07412 56.0968 7.37797 56.1111 7.69976V12.0609H33.8889V7.69976ZM67.2222 55.4498C67.2222 56.1865 66.9296 56.893 66.4086 57.4139C65.8877 57.9349 65.1812 58.2275 64.4444 58.2275C63.7077 58.2275 63.0012 57.9349 62.4803 57.4139C61.9593 56.893 61.6667 56.1865 61.6667 55.4498V51.1164H33.8889V45.3942H61.6667V39.6164H67.2222V55.4498Z" fill="#0A56F1" fill-opacity="0.75"/>
</svg>
