<svg width="100" height="101" viewBox="0 0 100 101" fill="none" xmlns="http://www.w3.org/2000/svg">
<path d="M54.1667 37.8942H77.0833L54.1667 14.9775V37.8942ZM25 8.72754H58.3333L83.3333 33.7275V83.7275C83.3333 85.9377 82.4554 88.0573 80.8926 89.6201C79.3298 91.1829 77.2101 92.0609 75 92.0609H25C22.7899 92.0609 20.6703 91.1829 19.1074 89.6201C17.5446 88.0573 16.6667 85.9377 16.6667 83.7275V17.0609C16.6667 12.4359 20.375 8.72754 25 8.72754ZM43.75 46.2275C33.3333 46.2275 25 54.5609 25 64.9775C25 75.3942 33.3333 83.7275 43.75 83.7275C54.1667 83.7275 62.5 75.3942 62.5 64.9775C62.5 54.5609 54.1667 46.2275 43.75 46.2275ZM43.75 52.4775C47.0652 52.4775 50.2446 53.7945 52.5888 56.1387C54.933 58.4829 56.25 61.6623 56.25 64.9775C56.25 67.3109 55.625 69.4775 54.5 71.2275L37.5 54.2275C39.25 53.1025 41.4167 52.4775 43.75 52.4775ZM31.25 64.9775C31.25 62.6442 31.875 60.4775 33 58.7275L50 75.7275C48.25 76.8525 46.0833 77.4775 43.75 77.4775C40.4348 77.4775 37.2554 76.1606 34.9112 73.8164C32.567 71.4722 31.25 68.2927 31.25 64.9775Z" fill="#0A56F1" fill-opacity="0.75"/>
</svg>
