<svg width="100" height="101" viewBox="0 0 100 101" fill="none" xmlns="http://www.w3.org/2000/svg">
<g clip-path="url(#clip0_72_244)">
<path d="M50 6.16113C41.2097 6.16113 32.6168 8.76775 25.308 13.6514C17.9991 18.535 12.3026 25.4763 8.93869 33.5974C5.5748 41.7186 4.69465 50.6549 6.40955 59.2763C8.12445 67.8976 12.3574 75.8169 18.573 82.0325C24.7887 88.2482 32.7079 92.4811 41.3293 94.196C49.9507 95.9109 58.887 95.0308 67.0082 91.6669C75.1293 88.303 82.0706 82.6064 86.9542 75.2976C91.8378 67.9887 94.4445 59.3959 94.4445 50.6056C94.4445 38.8182 89.7619 27.5136 81.427 19.1786C73.092 10.8437 61.7874 6.16113 50 6.16113ZM67.2222 64.9945C67.0204 65.2998 66.7603 65.5623 66.4567 65.7668C66.1531 65.9712 65.8122 66.1137 65.4534 66.186C65.0946 66.2583 64.725 66.2589 64.3659 66.1879C64.0069 66.1169 63.6654 65.9756 63.3611 65.7722L46.9722 54.6611V30.4667C46.9722 29.73 47.2649 29.0234 47.7858 28.5025C48.3068 27.9816 49.0133 27.6889 49.75 27.6889C50.4867 27.6889 51.1933 27.9816 51.7142 28.5025C52.2351 29.0234 52.5278 29.73 52.5278 30.4667V51.7167L66.4167 61.1334C66.7243 61.333 66.9893 61.5915 67.1964 61.8941C67.4036 62.1966 67.5488 62.5372 67.6237 62.8961C67.6986 63.2551 67.7017 63.6253 67.6328 63.9854C67.5639 64.3456 67.4243 64.6885 67.2222 64.9945ZM66.25 23.4667C62.3416 21.1109 57.9698 19.6285 53.4345 19.1212C48.8993 18.6139 44.308 19.0936 39.9756 20.5276C35.6432 21.9616 31.6723 24.3158 28.3354 27.4287C24.9984 30.5416 22.3743 34.3396 20.6432 38.562C18.9121 42.7844 18.1148 47.3314 18.3062 51.8909C18.4976 56.4504 19.6731 60.9145 21.752 64.977C23.8309 69.0395 26.764 72.6042 30.3501 75.4265C33.9363 78.2488 38.0905 80.262 42.5278 81.3278L41.6667 85.6889C36.5776 84.5044 31.8063 82.2296 27.6819 79.0216C23.5576 75.8136 20.1786 71.7488 17.7781 67.1077C15.3777 62.4667 14.013 57.36 13.7783 52.1402C13.5435 46.9204 14.4443 41.7119 16.4185 36.8741C18.3927 32.0363 21.3932 27.6846 25.2129 24.1194C29.0327 20.5541 33.5806 17.8602 38.5428 16.2237C43.5049 14.5872 48.7632 14.047 53.9544 14.6405C59.1457 15.234 64.1463 16.9469 68.6111 19.6611L66.25 23.4667Z" fill="#0A56F1" fill-opacity="0.75"/>
</g>
<defs>
<clipPath id="clip0_72_244">
<rect width="100" height="100" fill="white" transform="translate(0 0.605591)"/>
</clipPath>
</defs>
</svg>
