<svg width="100" height="101" viewBox="0 0 100 101" fill="none" xmlns="http://www.w3.org/2000/svg">
<path d="M29.1667 17.0611C29.1667 12.4361 25.4583 8.72778 20.8333 8.72778C16.2083 8.72778 12.5 12.4361 12.5 17.0611C12.5 21.6861 16.2083 25.3944 20.8333 25.3944C25.4583 25.3944 29.1667 21.6861 29.1667 17.0611ZM42.4583 19.1444C40.75 19.1444 39.2917 20.1861 38.625 21.7695C37.7038 24.0754 36.1107 26.0512 34.0527 27.4406C31.9946 28.83 29.5665 29.5688 27.0833 29.5611H14.5833C11.125 29.5611 8.33334 32.3528 8.33334 35.8111V46.2278H33.3333V36.8111C36.2665 35.886 38.956 34.3172 41.2052 32.2194C43.4543 30.1217 45.2064 27.5479 46.3333 24.6861C47.4167 22.0194 45.3333 19.1444 42.4583 19.1444ZM79.1667 71.2278C83.7917 71.2278 87.5 67.5194 87.5 62.8944C87.5 58.2694 83.7917 54.5611 79.1667 54.5611C74.5417 54.5611 70.8333 58.2694 70.8333 62.8944C70.8333 67.5194 74.5417 71.2278 79.1667 71.2278ZM85.4167 75.3944H72.9167C67.6667 75.3944 63.2083 72.1861 61.375 67.6028C61.0756 66.8295 60.5492 66.1649 59.865 65.6964C59.1809 65.2279 58.3709 64.9774 57.5417 64.9778C54.6667 64.9778 52.5833 67.8528 53.625 70.5194C54.7583 73.3773 56.5125 75.9477 58.7608 78.0446C61.0091 80.1415 63.6952 81.7127 66.625 82.6444V92.0611H91.625V81.6444C91.6667 78.1861 88.875 75.3944 85.4167 75.3944ZM71.875 46.6028C71.875 46.6028 71.875 46.5611 71.9167 46.6028C69.7391 47.1645 67.7519 48.2994 66.1618 49.8895C64.5716 51.4797 63.4367 53.4669 62.875 55.6444V55.6028C62.4167 57.3944 60.75 58.7278 58.7917 58.7278C56.5 58.7278 54.625 56.8528 54.625 54.5611C54.625 54.3528 54.7083 53.9778 54.7083 53.9778C55.5948 50.1834 57.5296 46.7144 60.2923 43.9665C63.055 41.2185 66.5342 39.3022 70.3333 38.4361C70.5 38.4361 70.6667 38.3944 70.8333 38.3944C73.125 38.3944 75 40.2694 75 42.5611C75 44.4778 73.6667 46.1444 71.875 46.6028ZM75 25.6444C75 27.7694 73.4583 29.4778 71.4167 29.7694C58.125 31.3944 47.6667 41.8944 46.0417 55.1861C45.869 56.213 45.3188 57.1384 44.499 57.7805C43.6792 58.4227 42.6491 58.7353 41.6107 58.657C40.5723 58.5788 39.6006 58.1153 38.8863 57.3575C38.1721 56.5997 37.7668 55.6023 37.75 54.5611V54.1861C39.8333 37.0194 53.5417 23.4361 70.75 21.4778H70.7917C73.125 21.4778 75 23.3528 75 25.6444Z" fill="#0A56F1" fill-opacity="0.75"/>
</svg>
