<svg width="72" height="87" viewBox="0 0 72 87" fill="none" xmlns="http://www.w3.org/2000/svg">
<path d="M29.4536 57.1842L29.4321 57.1342C29.001 57.0325 28.5723 56.9206 28.1464 56.7984L28.1143 56.7877C24.0396 55.6183 20.2769 53.5551 17.1 50.7484C13.605 47.6653 10.9172 43.7739 9.2711 39.4137C7.62499 35.0535 7.0705 30.3568 7.65599 25.7331C8.24148 21.1094 9.94915 16.6992 12.6301 12.8869C15.3111 9.07459 18.884 5.97601 23.0372 3.86133C27.1904 1.74666 31.7979 0.680077 36.4579 0.754599C41.1179 0.829122 45.689 2.04248 49.7724 4.28888C53.8559 6.53528 57.3279 9.74652 59.8856 13.6426C62.4433 17.5387 64.0091 22.0013 64.4464 26.6413C64.5857 28.1163 63.375 29.3199 61.8929 29.3199C60.4143 29.3199 59.2321 28.1163 59.0607 26.6449C58.5886 22.5852 57.053 18.7221 54.6093 15.4461C52.1655 12.1702 48.9002 9.59744 45.1434 7.98801C41.3866 6.37857 37.2715 5.78949 33.214 6.28031C29.1565 6.77113 25.3006 8.32446 22.0359 10.7833C18.7712 13.2421 16.2135 16.5192 14.6214 20.2834C13.0293 24.0475 12.4592 28.1653 12.9686 32.2205C13.4781 36.2757 15.0492 40.1244 17.523 43.3778C19.9968 46.6311 23.2857 49.1737 27.0571 50.7484L27.2 50.8092C27.9143 51.102 28.65 51.3591 29.4 51.5841C30.0321 50.0567 31.1745 48.7958 32.6323 48.0164C34.0902 47.237 35.7732 46.9874 37.3945 47.3101C39.0158 47.6329 40.475 48.508 41.5232 49.7862C42.5714 51.0645 43.1439 52.6668 43.1429 54.3199C43.1444 55.9614 42.5806 57.5535 41.5461 58.828C40.5116 60.1026 39.0696 60.982 37.4629 61.3182C35.8561 61.6544 34.1825 61.4269 32.7238 60.674C31.2651 59.921 30.1103 58.6887 29.4536 57.1842ZM25.9321 61.727C19.5889 59.7512 13.9641 55.9591 9.75357 50.8199C7.14541 51.1254 4.74025 52.378 2.99486 54.34C1.24947 56.3021 0.28539 58.8367 0.285713 61.4627V64.0163C0.285713 77.2949 15.3214 86.4627 36 86.4627C56.6786 86.4627 71.7143 76.7913 71.7143 64.0163V61.4627C71.7143 58.6211 70.5855 55.8959 68.5761 53.8866C66.5668 51.8773 63.8416 50.7484 61 50.7484H47.9821C48.8246 53.57 48.6439 56.5984 47.4719 59.2997C46.2999 62.0011 44.2119 64.202 41.5759 65.5144C38.94 66.8268 35.9253 67.1665 33.0633 66.4737C30.2014 65.7808 27.6759 64.0998 25.9321 61.727ZM53.8571 29.3199C53.8571 23.9199 51.4643 19.0806 47.675 15.8056C45.7737 14.1654 43.548 12.9447 41.143 12.2231C38.7379 11.5014 36.2078 11.2951 33.7176 11.6176C31.2275 11.94 28.8333 12.784 26.6915 14.0944C24.5496 15.4048 22.7081 17.1522 21.2874 19.2225C19.8666 21.2928 18.8984 23.6395 18.4459 26.1094C17.9935 28.5792 18.0671 31.1167 18.6618 33.5562C19.2565 35.9957 20.3589 38.2824 21.8973 40.2669C23.4356 42.2514 25.3751 43.8893 27.5893 45.0734C29.8878 42.976 32.8884 41.8152 36 41.8199C39.1126 41.8157 42.1142 42.9763 44.4143 45.0734C47.2676 43.5491 49.6532 41.2784 51.3164 38.5037C52.9795 35.7291 53.8577 32.5548 53.8571 29.3199Z" fill="#0A56F1" fill-opacity="0.75"/>
</svg>
