<svg width="90" height="72" viewBox="0 0 90 72" fill="none" xmlns="http://www.w3.org/2000/svg">
<path d="M24.9445 26.0331H26.2778V24.8386C26.2859 21.3653 27.2658 17.9635 29.1067 15.0181C30.9475 12.0727 33.5759 9.70125 36.6945 8.17195C35.7712 6.04573 34.2893 4.20926 32.4062 2.8576C30.5231 1.50594 28.309 0.68956 25.9992 0.495164C23.6893 0.300769 21.37 0.735619 19.2874 1.75353C17.2049 2.77144 15.4369 4.3344 14.1713 6.27641C12.9057 8.21841 12.1897 10.467 12.0994 12.7832C12.009 15.0994 12.5477 17.3969 13.6583 19.4316C14.7688 21.4663 16.4097 23.1622 18.4066 24.3392C20.4036 25.5162 22.682 26.1303 25 26.1164L24.9445 26.0331ZM63.7778 24.7275V25.9219H65.1111C67.3982 25.899 69.6368 25.2599 71.5913 24.0719C73.5458 22.884 75.1439 21.191 76.2174 19.1714C77.2909 17.1518 77.8 14.8801 77.6913 12.5954C77.5825 10.3108 76.8599 8.09775 75.5994 6.1892C74.3389 4.28066 72.5872 2.74721 70.5287 1.75027C68.4702 0.753335 66.181 0.329776 63.9021 0.524181C61.6232 0.718586 59.4388 1.52376 57.5789 2.85496C55.719 4.18616 54.2523 5.99415 53.3333 8.08861C56.4529 9.61193 59.0841 11.9774 60.9298 14.9177C62.7755 17.858 63.762 21.2559 63.7778 24.7275ZM56.9167 39.0886C62.4396 40.1818 67.7798 42.0522 72.7778 44.6442C73.4819 45.031 74.1196 45.528 74.6667 46.1164H89.4445V36.6164C89.4471 36.252 89.3503 35.8938 89.1642 35.5805C88.9782 35.2672 88.7101 35.0107 88.3889 34.8386C81.1893 31.0728 73.1805 29.1183 65.0556 29.1442H63.2222C62.2596 33.0573 60.0455 36.549 56.9167 39.0886ZM13.1389 51.5053C13.1338 50.1063 13.5116 48.7326 14.2314 47.533C14.9512 46.3334 15.9855 45.3536 17.2222 44.6997C22.2202 42.1078 27.5604 40.2373 33.0833 39.1442C29.9696 36.6262 27.757 33.1659 26.7778 29.2831H24.9445C16.8195 29.2572 8.8107 31.2117 1.61112 34.9775C1.28992 35.1496 1.02183 35.4061 0.835802 35.7194C0.649772 36.0327 0.552872 36.3909 0.555566 36.7553V54.5053H13.1389V51.5053ZM54.6111 67.5331H71.1667V71.4219H54.6111V67.5331Z" fill="#0A56F1" fill-opacity="0.75"/>
</svg>
