<svg width="100" height="99" viewBox="0 0 100 99" fill="none" xmlns="http://www.w3.org/2000/svg">
<path d="M69.2308 0.117371C52.6346 0.117371 39.1808 7.5366 39.1808 16.702C39.1808 25.8674 52.6385 33.2904 69.2308 33.2904C85.8269 33.2904 99.2808 25.8674 99.2808 16.702C99.2808 7.5366 85.8231 0.117371 69.2308 0.117371ZM99.2808 21.6289C99.2731 30.7943 85.8269 38.2174 69.2308 38.2174C52.6808 38.2174 39.2577 30.8751 39.1808 21.752V28.2404C39.1808 32.1558 41.6885 35.7404 45.7962 38.5789C49.95 39.7097 53.65 41.2789 56.7308 43.2635C60.55 44.2328 64.75 44.8251 69.2308 44.8251C85.8269 44.8251 99.2808 37.4058 99.2808 28.2404V21.6289ZM99.2808 33.1674C99.2808 42.3328 85.8269 49.7558 69.2308 49.7558C67.2115 49.7558 65.25 49.6058 63.3423 49.3943C64.8477 51.4217 65.8746 53.7635 66.3462 56.2443C67.3038 56.2981 68.25 56.3635 69.2308 56.3635C85.8269 56.3635 99.2808 48.9443 99.2808 39.7789V33.1674ZM30.7692 42.4212C14.1731 42.4212 0.719238 49.8443 0.719238 59.0097C0.719238 68.1751 14.1769 75.5981 30.7692 75.5981C47.3654 75.5981 60.8192 68.1751 60.8192 59.0097C60.8192 49.8443 47.3615 42.4212 30.7692 42.4212ZM99.2808 44.7058C99.2731 53.8712 85.8269 61.2943 69.2308 61.2943C68.2654 61.2943 67.2885 61.2251 66.3462 61.1712C66.3038 61.4597 66.2808 61.8443 66.2269 62.1328C66.4192 62.7135 66.5846 63.2866 66.5846 63.9404V67.7866C67.4577 67.8289 68.3346 67.902 69.2308 67.902C85.8269 67.902 99.2808 60.4828 99.2808 51.3174V44.7058ZM99.2808 56.2443C99.2731 65.4097 85.8269 72.8328 69.2308 72.8328C68.2654 72.8328 67.2885 72.7635 66.3462 72.7097C66.3038 72.9981 66.2808 73.3828 66.2269 73.6712C66.4192 74.2481 66.5846 74.8251 66.5846 75.4789V79.3251C67.4577 79.3674 68.3346 79.4404 69.2308 79.4404C85.8269 79.4404 99.2808 72.0212 99.2808 62.8558V56.2443ZM60.8192 63.9366C60.8115 73.102 47.3654 80.5251 30.7692 80.5251C14.2192 80.5251 0.796161 73.1828 0.719238 64.0558V70.5481C0.719238 79.7135 14.1692 87.1366 30.7692 87.1366C47.3692 87.1366 60.8192 79.7135 60.8192 70.5481V63.9366ZM60.8192 75.4751C60.8115 84.6404 47.3654 92.0635 30.7692 92.0635C14.2192 92.0635 0.796161 84.7212 0.719238 75.5943V82.0866C0.719238 91.252 14.1692 98.6751 30.7692 98.6751C47.3692 98.6751 60.8192 91.252 60.8192 82.0866V75.4751Z" fill="#0A56F1" fill-opacity="0.75"/>
</svg>
