<svg width="100" height="101" viewBox="0 0 100 101" fill="none" xmlns="http://www.w3.org/2000/svg">
<path fill-rule="evenodd" clip-rule="evenodd" d="M50 67.0609C57.7355 67.0609 65.1541 63.988 70.624 58.5182C76.0938 53.0483 79.1667 45.6297 79.1667 37.8942C79.1667 30.1587 76.0938 22.7401 70.624 17.2703C65.1541 11.8004 57.7355 8.72754 50 8.72754C42.2645 8.72754 34.8459 11.8004 29.3761 17.2703C23.9063 22.7401 20.8333 30.1587 20.8333 37.8942C20.8333 45.6297 23.9063 53.0483 29.3761 58.5182C34.8459 63.988 42.2645 67.0609 50 67.0609ZM50 25.3942C48.8167 25.3942 48.025 26.8109 46.4417 29.6567L46.0333 30.39C45.5833 31.1984 45.3583 31.5984 45.0083 31.865C44.6542 32.1317 44.2167 32.2317 43.3417 32.4275L42.55 32.6109C39.475 33.3067 37.9375 33.6525 37.5708 34.8275C37.2042 36.0067 38.2542 37.2317 40.35 39.6817L40.8917 40.315C41.4875 41.0109 41.7875 41.3567 41.9208 41.79C42.0542 42.2234 42.0083 42.6859 41.9208 43.615L41.8375 44.4609C41.5208 47.7317 41.3625 49.3692 42.3167 50.0942C43.275 50.8192 44.7167 50.1567 47.5958 48.8317L48.3375 48.49C49.1583 48.115 49.5667 47.9275 50 47.9275C50.4333 47.9275 50.8417 48.115 51.6625 48.49L52.4042 48.8317C55.2833 50.1609 56.725 50.8192 57.6833 50.0942C58.6417 49.3692 58.4792 47.7317 58.1625 44.4609L58.0792 43.615C57.9917 42.6859 57.9458 42.2234 58.0792 41.79C58.2125 41.3609 58.5125 41.0109 59.1083 40.315L59.65 39.6817C61.7458 37.2317 62.7958 36.0067 62.4292 34.8275C62.0625 33.6525 60.525 33.3067 57.45 32.6109L56.6583 32.4275C55.7833 32.2317 55.3458 32.1359 54.9917 31.865C54.6417 31.5984 54.4167 31.1984 53.9667 30.39L53.5583 29.6567C51.975 26.8109 51.1833 25.3942 50 25.3942Z" fill="#0A56F1" fill-opacity="0.75"/>
<path d="M18.7292 54.5401L12.4667 61.0192C10.2167 63.3526 9.09167 64.5151 8.7 65.5026C7.8125 67.7526 8.575 70.2442 10.5042 71.4276C11.3542 71.9442 12.8792 72.1067 15.9417 72.4276C17.6667 72.6109 18.5333 72.7026 19.2542 72.9817C20.875 73.6026 22.1292 74.9067 22.7333 76.5817C23 77.3317 23.0875 78.2234 23.2625 80.0109C23.575 83.1776 23.7333 84.7609 24.2333 85.6401C25.375 87.64 27.7875 88.4276 29.9583 87.5067C30.9083 87.1067 32.0333 85.9401 34.2875 83.6109L44.6292 72.9026C39.1814 72.0653 34.0039 69.9693 29.5079 66.781C25.0119 63.5927 21.3213 59.4042 18.7292 54.5401ZM55.375 72.9067L65.7167 83.6151C67.9667 85.9484 69.0917 87.1109 70.0417 87.5151C72.2125 88.4317 74.625 87.6442 75.7667 85.6442C76.2667 84.7692 76.4208 83.1859 76.7333 80.0192C76.9125 78.2276 77 77.3359 77.2667 76.5859C77.8667 74.9109 79.125 73.6067 80.7458 72.9859C81.4667 72.7067 82.3292 72.6192 84.0583 72.4359C87.1167 72.1109 88.6458 71.9484 89.4958 71.4317C91.425 70.2484 92.1875 67.7526 91.3 65.5067C90.9083 64.5192 89.7833 63.3526 87.5333 61.0234L81.2708 54.5401C78.6787 59.4042 74.9881 63.5969 70.4921 66.7852C65.9961 69.9735 60.8186 72.0695 55.3708 72.9067" fill="#0A56F1" fill-opacity="0.75"/>
</svg>
