<svg width="100" height="101" viewBox="0 0 100 101" fill="none" xmlns="http://www.w3.org/2000/svg">
<path d="M83.3333 8.93893H16.6667V17.2723L40.875 35.4389C33.5281 37.8616 27.4437 43.1022 23.959 50.0089C20.4744 56.9157 19.8747 64.9235 22.2917 72.2723C23.4875 75.9127 25.3893 79.2816 27.8883 82.1863C30.3873 85.0911 33.4344 87.4746 36.8555 89.2006C40.2765 90.9266 44.0042 91.9612 47.8255 92.2451C51.6467 92.5291 55.4864 92.0569 59.125 90.8556C64.9603 88.9376 70.0412 85.2263 73.6432 80.2508C77.2451 75.2754 79.1844 69.2897 79.1844 63.1473C79.1844 57.0048 77.2451 51.0192 73.6432 46.0437C70.0412 41.0682 64.9603 37.3569 59.125 35.4389L83.3333 17.2723V8.93893ZM62.25 81.8556L50 74.6889L37.75 81.8556L41 67.9806L30.2083 58.6473L44.4167 57.4389L50 44.3556L55.5833 57.4389L69.7917 58.6473L59 67.9806L62.25 81.8556Z" fill="#0A56F1" fill-opacity="0.75"/>
</svg>
