<svg width="88" height="90" viewBox="0 0 88 90" fill="none" xmlns="http://www.w3.org/2000/svg">
<path d="M67.025 18.7111L53.7792 0.140259L5.075 39.0486L2.375 39.0194V39.0611H0.25V89.0611H87.75V39.0611H83.7417L75.7667 15.7319L67.025 18.7111ZM74.9375 39.0611H33.1542L64.275 28.4528L70.6167 26.4236L74.9375 39.0611ZM58.7917 21.5194L26.6667 32.4694L52.1083 12.1444L58.7917 21.5194ZM8.58333 73.0986V55.0153C10.3412 54.3923 11.9379 53.3849 13.2571 52.0665C14.5762 50.7481 15.5844 49.152 16.2083 47.3944H71.7917C72.4153 49.1526 73.4234 50.7495 74.7425 52.0686C76.0616 53.3877 77.6585 54.3958 79.4167 55.0194V73.1028C77.6585 73.7264 76.0616 74.7345 74.7425 76.0536C73.4234 77.3727 72.4153 78.9696 71.7917 80.7278H16.2167C15.5924 78.9681 14.5832 77.37 13.2626 76.0501C11.942 74.7302 10.3433 73.7219 8.58333 73.0986Z" fill="#0A56F1" fill-opacity="0.75"/>
</svg>
