<svg width="93" height="90" viewBox="0 0 93 90" fill="none" xmlns="http://www.w3.org/2000/svg">
<path d="M90.7944 33.8944L89.5944 32.6944C90.3707 31.0813 90.6369 29.2699 90.3575 27.5017C90.0781 25.7334 89.2664 24.0923 88.0305 22.7972C87.1874 21.9581 86.1749 21.3084 85.0607 20.8917C83.9466 20.475 82.7563 20.3007 81.5694 20.3805C80.454 20.4458 79.3587 20.7062 78.3333 21.15V0.949951H0.555542V89.8388H78.3333V44.8944L86.9166 36.3111L87.65 37.0416C87.7458 37.1373 87.8218 37.251 87.8737 37.3761C87.9256 37.5012 87.9523 37.6353 87.9523 37.7708C87.9523 37.9062 87.9256 38.0403 87.8737 38.1655C87.8218 38.2906 87.7458 38.4042 87.65 38.5L81.1139 45.0388C80.6969 45.4554 80.4625 46.0206 80.4622 46.6101C80.462 47.1995 80.6959 47.7649 81.1125 48.1819C81.5291 48.5989 82.0943 48.8333 82.6837 48.8335C83.2732 48.8338 83.8386 48.5999 84.2555 48.1833L90.7944 41.6444C91.8207 40.6159 92.397 39.2223 92.397 37.7694C92.397 36.3165 91.8207 34.9229 90.7944 33.8944ZM17.2222 18.1722H61.6722V22.6166H17.2222V18.1722ZM17.2222 29.2833H61.6722V33.7277H17.2222V29.2833ZM17.2222 40.3944H46.3889V44.8388H17.2222V40.3944ZM58.3111 78.4388H36.6333C34.1278 78.4388 31.7833 78.2027 30.5389 76.1499C29.2639 74.0527 30.5305 71.6166 31.4555 69.8333C31.6194 69.5194 31.2555 69.1305 30.8389 69.5611C29.6167 70.8166 27.6722 73.0777 26.1083 74.8944C24.4555 76.8166 23.8 77.5694 23.45 77.8861C23.0797 78.3162 22.5768 78.6108 22.0205 78.7235C21.4642 78.8362 20.8862 78.7605 20.3778 78.5083C19.9212 78.2446 19.5636 77.8388 19.3594 77.3527C19.1553 76.8667 19.1159 76.3272 19.2472 75.8166C19.3639 75.1222 21.3472 67.3944 23.1444 60.4472C20.7555 64.6888 13.1722 77.3916 12.8167 77.9888C12.5522 78.432 12.1225 78.7519 11.6221 78.8782C11.1218 79.0045 10.5917 78.9269 10.1486 78.6624C9.70546 78.398 9.38555 77.9683 9.25922 77.4679C9.13289 76.9676 9.21051 76.4375 9.47499 75.9944C9.57221 75.8361 19.0722 59.9166 20.2694 57.6055C20.6597 56.6817 21.3861 55.9405 22.3019 55.5316C23.2176 55.1227 24.2544 55.0766 25.2028 55.4027C26.0588 55.7507 26.7512 56.4102 27.1403 57.2483C27.5295 58.0864 27.5865 59.0409 27.3 59.9194C26.3 63.7749 25.2805 67.7305 24.4944 70.8083C25.7639 69.3416 27.0917 67.8361 28.05 66.85C28.7875 65.9633 29.7953 65.3428 30.9191 65.0834C32.0429 64.824 33.2207 64.9401 34.2722 65.4138C34.9256 65.7465 35.449 66.2882 35.759 66.9526C36.0691 67.617 36.148 68.366 35.9833 69.0805C35.718 69.9654 35.3566 70.8187 34.9055 71.625C34.1639 73.1666 34.5167 74.5472 36.6333 74.5472H58.3083C58.824 74.5472 59.3186 74.752 59.6832 75.1167C60.0479 75.4813 60.2528 75.9759 60.2528 76.4916C60.2528 77.0073 60.0479 77.5019 59.6832 77.8665C59.3186 78.2312 58.824 78.4361 58.3083 78.4361L58.3111 78.4388ZM52.5305 64.4111L45.2972 66.3194C45.192 66.3492 45.0806 66.35 44.975 66.3216C44.8693 66.2933 44.7733 66.2368 44.6972 66.1583C44.6174 66.083 44.5599 65.9871 44.531 65.8813C44.5021 65.7755 44.5029 65.6637 44.5333 65.5583L46.3778 58.3388L64.6833 40.0333L70.7944 46.1444L52.5305 64.4111ZM84.3805 32.5583L73.9361 43.0027L67.825 36.8916L78.2694 26.4472C79.2035 25.4868 80.4604 24.9068 81.7972 24.8194L82.0472 24.8111C82.5717 24.8017 83.0929 24.8968 83.5803 25.0909C84.0677 25.285 84.5116 25.5742 84.8861 25.9416C85.689 26.8893 86.0861 28.1152 85.9915 29.3537C85.8968 30.5922 85.3181 31.7435 84.3805 32.5583Z" fill="#0A56F1" fill-opacity="0.75"/>
</svg>
