<svg width="88" height="85" viewBox="0 0 88 85" fill="none" xmlns="http://www.w3.org/2000/svg">
<path d="M64.9167 38.3944C70.9946 38.3944 76.8235 40.8088 81.1212 45.1065C85.4189 49.4043 87.8333 55.2332 87.8333 61.3111C87.8333 67.389 85.4189 73.2179 81.1212 77.5156C76.8235 81.8133 70.9946 84.2277 64.9167 84.2277C58.8388 84.2277 53.0098 81.8133 48.7121 77.5156C44.4144 73.2179 42 67.389 42 61.3111C42 55.2332 44.4144 49.4043 48.7121 45.1065C53.0098 40.8088 58.8388 38.3944 64.9167 38.3944ZM64.9167 46.7277L64.5417 46.7569C64.1254 46.833 63.7422 47.034 63.4429 47.3332C63.1437 47.6324 62.9427 48.0156 62.8667 48.4319L62.8333 48.8111V59.2277H52.4083L52.0333 59.2611C51.6171 59.3371 51.2338 59.5381 50.9346 59.8373C50.6354 60.1366 50.4344 60.5198 50.3583 60.9361L50.325 61.3111L50.3583 61.6861C50.4344 62.1023 50.6354 62.4856 50.9346 62.7848C51.2338 63.084 51.6171 63.285 52.0333 63.3611L52.4083 63.3944H62.8333V73.8236L62.8667 74.1986C62.9427 74.6148 63.1437 74.9981 63.4429 75.2973C63.7422 75.5965 64.1254 75.7975 64.5417 75.8736L64.9167 75.9069L65.2917 75.8736C65.7079 75.7975 66.0912 75.5965 66.3904 75.2973C66.6896 74.9981 66.8906 74.6148 66.9667 74.1986L67 73.8236V63.3944L77.4333 63.3986L77.8083 63.3652C78.2246 63.2892 78.6078 63.0882 78.9071 62.789C79.2063 62.4897 79.4073 62.1065 79.4833 61.6902L79.5167 61.3152L79.4833 60.9402C79.407 60.5234 79.2054 60.1397 78.9054 59.8405C78.6054 59.5412 78.2212 59.3405 77.8042 59.2652L77.4292 59.2319H67V48.8152L66.9667 48.4402C66.8914 48.0232 66.6907 47.6391 66.3914 47.339C66.0922 47.039 65.7085 46.8374 65.2917 46.7611L64.9167 46.7277ZM51.3917 30.0611C53.0411 30.0614 54.6612 30.4969 56.0886 31.3236C57.5159 32.1502 58.6998 33.3389 59.5208 34.7694C55.2126 35.6473 51.1827 37.5607 47.7792 40.3442C44.3757 43.1277 41.7008 46.6978 39.9855 50.7462C38.2701 54.7946 37.5659 59.1996 37.9336 63.581C38.3012 67.9624 39.7298 72.1885 42.0958 75.8944L42.0125 75.8902C37.0386 75.8902 32.2684 73.9144 28.7513 70.3973C25.2342 66.8802 23.2583 62.11 23.2583 57.1361V39.4361C23.2583 36.9497 24.2461 34.5651 26.0042 32.8069C27.7624 31.0488 30.1469 30.0611 32.6333 30.0611H51.3917ZM22.8583 30.0611C20.6514 32.3565 19.3275 35.3585 19.1208 38.5361L19.0917 39.4361V57.1402C19.0917 60.6694 19.8875 64.0111 21.3125 66.9944C18.8428 67.6551 16.2543 67.7389 13.7471 67.2395C11.2398 66.74 8.88105 65.6705 6.85312 64.1138C4.8252 62.5572 3.18246 60.5549 2.05194 58.262C0.921417 55.969 0.333395 53.4468 0.333344 50.8902V39.4361C0.333052 37.0605 1.23457 34.7735 2.85572 33.0371C4.47686 31.3007 6.69672 30.2445 9.06668 30.0819L9.70834 30.0611H22.8583ZM74.2917 30.0611C76.7781 30.0611 79.1626 31.0488 80.9208 32.8069C82.679 34.5651 83.6667 36.9497 83.6667 39.4361V41.7694C78.6291 36.9223 71.9075 34.2187 64.9167 34.2277L63.9042 34.2486C63.2584 32.6945 62.3287 31.2744 61.1625 30.0611H74.2917ZM69.0833 5.06108C71.846 5.06108 74.4955 6.15854 76.449 8.11205C78.4025 10.0656 79.5 12.7151 79.5 15.4777C79.5 18.2404 78.4025 20.8899 76.449 22.8434C74.4955 24.7969 71.846 25.8944 69.0833 25.8944C66.3207 25.8944 63.6712 24.7969 61.7176 22.8434C59.7641 20.8899 58.6667 18.2404 58.6667 15.4777C58.6667 12.7151 59.7641 10.0656 61.7176 8.11205C63.6712 6.15854 66.3207 5.06108 69.0833 5.06108ZM42 0.894409C45.3152 0.894409 48.4946 2.21137 50.8388 4.55557C53.183 6.89978 54.5 10.0792 54.5 13.3944C54.5 16.7096 53.183 19.889 50.8388 22.2332C48.4946 24.5774 45.3152 25.8944 42 25.8944C38.6848 25.8944 35.5054 24.5774 33.1612 22.2332C30.817 19.889 29.5 16.7096 29.5 13.3944C29.5 10.0792 30.817 6.89978 33.1612 4.55557C35.5054 2.21137 38.6848 0.894409 42 0.894409ZM14.9167 5.06108C17.6793 5.06108 20.3289 6.15854 22.2824 8.11205C24.2359 10.0656 25.3333 12.7151 25.3333 15.4777C25.3333 18.2404 24.2359 20.8899 22.2824 22.8434C20.3289 24.7969 17.6793 25.8944 14.9167 25.8944C12.154 25.8944 9.50449 24.7969 7.55098 22.8434C5.59748 20.8899 4.50001 18.2404 4.50001 15.4777C4.50001 12.7151 5.59748 10.0656 7.55098 8.11205C9.50449 6.15854 12.154 5.06108 14.9167 5.06108Z" fill="#0A56F1" fill-opacity="0.75"/>
</svg>
