<svg width="100" height="101" viewBox="0 0 100 101" fill="none" xmlns="http://www.w3.org/2000/svg">
<g clip-path="url(#clip0_77_564)">
<path d="M27.9167 50.3943C27.9323 55.0121 28.5106 59.6108 29.6389 64.0887H47.6389V37.7554H29.3889C28.4287 41.9003 27.9349 46.1396 27.9167 50.3943Z" fill="#0A56F1" fill-opacity="0.75"/>
<path d="M52.3611 37.7554V64.0887H70.3611C71.5363 59.6166 72.1612 55.0178 72.2222 50.3943C72.2131 46.1406 71.7287 41.9014 70.7778 37.7554H52.3611Z" fill="#0A56F1" fill-opacity="0.75"/>
<path d="M50 5.94995C41.2097 5.94995 32.6168 8.55657 25.308 13.4402C17.9991 18.3238 12.3026 25.2651 8.93869 33.3862C5.5748 41.5074 4.69465 50.4437 6.40955 59.0651C8.12445 67.6865 12.3574 75.6057 18.573 81.8214C24.7887 88.037 32.7079 92.27 41.3293 93.9849C49.9507 95.6998 58.887 94.8196 67.0082 91.4557C75.1293 88.0918 82.0706 82.3953 86.9542 75.0864C91.8378 67.7776 94.4445 59.1847 94.4445 50.3944C94.4445 38.607 89.7619 27.3024 81.427 18.9674C73.092 10.6325 61.7874 5.94995 50 5.94995ZM83.9445 69.0333H73.8889C71.9876 74.9855 69.1766 80.6076 65.5556 85.6999C62.8835 86.8645 60.0878 87.7219 57.2222 88.2555C62.3541 82.6792 66.3038 76.1215 68.8333 68.9777H52.3889V88.8388H47.6945V69.0333H31.1667C33.6928 76.1869 37.6427 82.7543 42.7778 88.3388C39.9713 87.811 37.2322 86.9725 34.6111 85.8388C30.9773 80.7038 28.1658 75.034 26.2778 69.0333H16.0556C15.1682 67.4145 14.3977 65.7342 13.75 64.0055H24.8611C23.82 59.5424 23.2796 54.9772 23.25 50.3944C23.2515 46.1464 23.6984 41.9103 24.5833 37.7555H13.2222C13.8064 36.0319 14.5119 34.3517 15.3333 32.7277H25.9167C27.9025 26.114 30.9821 19.8795 35.0278 14.2833C37.5933 13.2203 40.2662 12.4379 43 11.95C37.4741 17.8806 33.3037 24.9419 30.7778 32.6444H47.6945V11.5055H52.3889V32.7277H69.3056C66.7842 25.0375 62.6236 17.9863 57.1111 12.0611C59.8405 12.5138 62.5133 13.2589 65.0833 14.2833C69.1054 19.8391 72.1751 26.0254 74.1667 32.5888H84.6389C85.4603 34.2129 86.1658 35.893 86.75 37.6166H75.4722C76.3762 41.8158 76.8324 46.099 76.8333 50.3944C76.8191 55.004 76.288 59.5975 75.25 64.0888H86.3611C85.6739 65.7922 84.8663 67.4445 83.9445 69.0333Z" fill="#0A56F1" fill-opacity="0.75"/>
</g>
<defs>
<clipPath id="clip0_77_564">
<rect width="100" height="100" fill="white" transform="translate(0 0.394287)"/>
</clipPath>
</defs>
</svg>
